<svg width="207" height="185" viewBox="0 0 207 185" fill="none" xmlns="http://www.w3.org/2000/svg">
<g clip-path="url(#clip0_235_312)">
<path fill-rule="evenodd" clip-rule="evenodd" d="M102.14 4.61983e-05C114.243 -0.0120897 126.228 2.3669 137.409 7.00038C148.589 11.6339 158.744 18.4306 167.29 27C169.05 28.76 170.74 30.59 172.36 32.49C169.207 33.0234 165.97 33.6167 162.65 34.27L161.34 32.94C149.633 21.2351 134.718 13.2646 118.482 10.0365C102.245 6.80834 85.4153 8.46754 70.1215 14.8043C54.8277 21.141 41.7565 31.8707 32.5608 45.6363C23.3651 59.402 18.458 75.5854 18.4601 92.14C18.4601 93.51 18.4601 94.86 18.5601 96.21C15.7501 98.64 13.1401 101.12 10.7601 103.63C10.2858 99.8184 10.0487 95.981 10.0501 92.14C10.0396 80.0371 12.4157 68.0508 17.0424 56.8671C21.6691 45.6835 28.4557 35.5218 37.0138 26.9638C45.5719 18.4057 55.7335 11.6191 66.9172 6.99236C78.1009 2.36561 90.0871 -0.0104758 102.19 4.61983e-05H102.14ZM189.31 62.23L187.76 63.66C186.22 65.08 184.42 66.66 182.45 68.38C185.91 80.044 186.784 92.322 185.013 104.359C183.243 116.395 178.869 127.901 172.197 138.074C165.524 148.248 156.714 156.844 146.38 163.265C136.046 169.685 124.437 173.775 112.36 175.25C102.98 178.544 93.3007 180.915 83.4601 182.33C99.378 185.611 115.88 184.626 131.295 179.474C146.709 174.322 160.488 165.187 171.234 152.994C181.98 140.801 189.312 125.984 192.487 110.045C195.661 94.1051 194.565 77.6096 189.31 62.23Z" fill="#D16E04"/>
<path fill-rule="evenodd" clip-rule="evenodd" d="M102.14 12.67C122.905 12.6507 142.847 20.7883 157.67 35.33C154.47 35.9966 151.207 36.7433 147.88 37.57C137.865 29.1645 125.73 23.6789 112.803 21.7146C99.8771 19.7503 86.6596 21.3832 74.6001 26.4343C62.5406 31.4853 52.1047 39.7595 44.4368 50.3495C36.7689 60.9395 32.165 73.4364 31.13 86.47C28.18 88.53 25.3499 90.64 22.6699 92.78V92.17C22.6621 81.7316 24.7122 71.3941 28.7032 61.7488C32.6941 52.1035 38.5475 43.3396 45.9286 35.9586C53.3096 28.5775 62.0734 22.7241 71.7187 18.7332C81.364 14.7422 91.7016 12.6921 102.14 12.7V12.67ZM169.33 52.33C167.41 53.79 165.58 55.18 163.81 56.51C163.63 56.21 163.45 55.91 163.28 55.61L163.92 55.12L164.15 54.9399L164.39 54.75L164.63 54.57L164.87 54.39L165.11 54.2L165.35 54.01L165.6 53.83L165.84 53.64L169.33 52.33ZM178.88 71.48C183.426 88.4089 182.27 106.364 175.59 122.57C175.4 123.02 175.21 123.47 175.01 123.92H165.92C166.66 122.453 167.327 120.953 167.92 119.42C173.4 106.126 174.745 91.4896 171.78 77.42C174.2 75.42 176.58 73.42 178.78 71.5L178.88 71.48ZM162.21 144.21C160.97 145.64 159.67 147.03 158.33 148.37C150.947 155.762 142.18 161.627 132.53 165.63C126.62 168.08 121.31 168.91 116.53 169.79C122.28 167.35 127.89 165.28 133.59 162.79C129.43 162.27 124.59 161.32 120.59 161.04C123.585 160.23 126.524 159.228 129.39 158.04C137.291 154.757 144.54 150.083 150.79 144.24L162.21 144.21Z" fill="#D16E04"/>
<path fill-rule="evenodd" clip-rule="evenodd" d="M125.91 154.51C131.691 152.301 137.136 149.299 142.09 145.59H139.7C136.602 145.606 133.511 145.291 130.48 144.65C127.818 144.08 125.229 143.215 122.76 142.07C119.603 143.38 116.328 144.384 112.98 145.07C106.391 146.417 99.6087 146.525 92.98 145.39C86.16 146.39 74.9799 145.62 67.6799 145.62C72.0726 148.429 76.736 150.791 81.6 152.67C88.8786 155.488 96.4237 157.561 104.12 158.86C111.576 158.643 118.942 157.173 125.91 154.51Z" fill="#D16E04"/>
<path fill-rule="evenodd" clip-rule="evenodd" d="M167.88 80.6299C165.14 82.8899 162.44 85.0999 159.88 87.1599L156.09 90.7599V92.1399C156.105 102.957 152.857 113.528 146.77 122.47H161.53C166.335 113.083 168.828 102.685 168.8 92.1399C168.801 89.6376 168.664 87.1371 168.39 84.6499C168.283 83.3032 168.113 81.9632 167.88 80.6299Z" fill="#D16E04"/>
<path fill-rule="evenodd" clip-rule="evenodd" d="M160.81 57.46L161.31 58.3199C156.76 61.6999 152.62 64.67 148.6 67.4799L148.31 66.9399L151.96 64.2L152.12 64.08L152.28 63.95L152.45 63.8199L152.63 63.68L152.82 63.53L153.01 63.39L153.2 63.25L153.38 63.12L153.55 62.99L153.71 62.87L153.87 62.75L154.02 62.6299L154.16 62.53H154.23L154.36 62.43L154.43 62.3799L154.55 62.28L154.84 62.0699L154.95 61.9799L155.54 61.53L155.66 61.4399L155.86 61.28L155.94 61.2299L156.13 61.08L156.28 60.97H156.34L156.74 60.6599L156.91 60.53L157.09 60.4L157.71 59.93L157.91 59.77L158.91 58.9799L159.13 58.81L159.28 58.7L159.71 58.37L159.79 58.31L159.92 58.21L160.01 58.14L160.13 58.05L160.81 57.46Z" fill="#D16E04"/>
<path fill-rule="evenodd" clip-rule="evenodd" d="M36.01 83.14C40.82 80 45.9201 76.96 51.2401 74.03C55.7696 61.3396 64.8735 50.7972 76.7689 44.4675C88.6643 38.1379 102.494 36.4769 115.55 39.81C119.072 40.7082 122.494 41.9647 125.76 43.56C131.38 41.87 136.94 40.32 142.39 38.92C133.1 31.8881 122.13 27.4116 110.572 25.9361C99.0148 24.4606 87.2723 26.0374 76.5134 30.5097C65.7544 34.982 56.3542 42.1937 49.2482 51.4274C42.1421 60.661 37.578 71.5945 36.01 83.14Z" fill="#D16E04"/>
<path fill-rule="evenodd" clip-rule="evenodd" d="M122.67 64.3301C110.748 67.9111 99.0163 72.0965 87.5199 76.8701C74.7578 82.0897 62.4121 88.2742 50.5899 95.3701L50.0599 95.7001L49.4599 96.0701L48.8799 96.4401L48.2999 96.8001C36.1599 104.47 25.8099 112.92 18.7999 121.98C12.8799 129.63 9.39993 137.69 9.40993 145.98V146.38C9.40993 146.52 9.40993 146.65 9.40993 146.79V147.79V147.89V148.11C9.40993 148.76 9.53993 149.42 9.62993 150.11V150.44C9.79993 151.51 10.0199 152.58 10.2899 153.62V153.67V153.78V153.84V153.9V153.96V154.01V154.07C11.0286 156.729 12.4012 159.168 14.2899 161.18C16.6817 163.582 19.5314 165.48 22.6699 166.76C27.1243 168.609 31.7894 169.902 36.5599 170.61C43.0002 171.611 49.503 172.155 56.0199 172.24C67.0684 172.522 78.1185 171.749 89.0199 169.93C84.8149 169.537 80.6605 168.719 76.6199 167.49C65.1299 163.93 53.9499 156.49 42.8999 141.55L20.0799 151.48L22.9399 142.56C25.1478 136.356 28.3238 130.541 32.3499 125.33C36.6262 119.563 41.4705 114.24 46.8099 109.44C52.4731 104.322 58.4588 99.5722 64.7299 95.2201C71.0899 90.7501 77.8099 86.5301 84.5999 82.6001C95.6099 76.1901 109.37 69.8901 122.67 64.3301Z" fill="#D16E04"/>
<path fill-rule="evenodd" clip-rule="evenodd" d="M158.32 81.3301L158.53 81.1501L159.12 80.6801L159.33 80.5101L159.91 80.0301L160.12 79.8601L160.71 79.3801L160.91 79.2201L161.51 78.7301L161.71 78.5701L162.31 78.0701L162.51 77.9101L163.12 77.4201L163.31 77.2601L163.92 76.7601L164.11 76.6001L164.72 76.0901L164.91 75.9401L165.53 75.4301L165.72 75.2801L166.34 74.7601L168.72 72.7601L168.9 72.6201L169.12 72.4301L169.7 71.9501L170.34 71.4101L171.01 70.8501L171.13 70.7501L171.29 70.6101L171.94 70.0701L172.1 69.9301L172.75 69.3801L172.9 69.2501L173.55 68.7001L173.7 68.5701L174.36 68.0101L174.51 67.8801L175.16 67.3201L175.31 67.1901L175.97 66.6201L176.11 66.5001L176.77 65.9301L176.91 65.8101L177.57 65.2301L178.03 64.8301L178.34 64.5601L178.47 64.4501L179.13 63.8601L179.26 63.7501L179.93 63.1601L180.05 63.0501L180.3 62.8301L180.8 62.3801L181.47 61.7701L181.98 61.3201L182.26 61.0601L182.37 60.9601L182.57 60.7801L183.14 60.2601L183.21 60.2001L183.9 59.5701L184.57 58.9501L184.67 58.8601L184.93 58.6301L185.43 58.1601L185.53 58.0601L186.19 57.4401L186.87 56.8001L188.46 55.3301L188.59 55.2001L188.67 55.1301L188.94 54.8601L189.42 54.4101L190.1 53.7601L190.17 53.6801L190.36 53.5001L190.91 52.9601L191.58 52.3001L191.99 51.9001L192.3 51.5801L192.37 51.5201L193.04 50.8501C193.44 50.4501 193.84 50.0401 194.23 49.6301L194.53 49.3301L195.19 48.6401V48.5901L195.41 48.3601L195.89 47.8501L196.54 47.1501L196.59 47.1001C196.81 46.8701 197.03 46.6401 197.24 46.4001C197.46 46.1601 197.68 45.9301 197.89 45.6901C198.11 45.4501 198.32 45.2101 198.54 44.9801L199.19 44.2601L199.83 43.5401L200.47 42.8201L201.12 42.0601C201.34 41.8201 201.55 41.5701 201.75 41.3301L202.38 40.5901C202.59 40.3401 202.8 40.1001 203 39.8501L203.61 39.1001C203.81 38.8401 204.02 38.5901 204.22 38.3401L204.82 37.5801L205.41 36.8201L206 36.0501C156 32.1101 -0.999966 82.6401 -0.339966 138.71C-0.239966 147.28 1.82003 154.6 6.41003 160.49V160.43V160.37V160.31V160.26V160.2V160.15V160.09V160.03V159.97V159.91V159.86V159.8V159.74V159.68V159.62V159.56V159.51V159.39V159.34V159.28V159.22V159.16V159.04V158.98V158.92V158.86V158.81V158.69V158.63V158.57V158.51V158.33V158.28V158.16V158.09V158.02V157.94V157.87V157.79V157.71V157.63V157.56V157.48V157.42V157.35V157.28V157.22V157.16V157.09V157.03V156.96V156.89V156.82V156.76V156.69V156.56V156.49V156.42V156.36V156.29C6.17003 155.29 5.98001 154.29 5.82001 153.23C5.63669 151.954 5.51989 150.669 5.47003 149.38V149.25V149.12V148.99C5.19003 138.86 9.24003 129.21 16.31 120.19C24.07 110.3 35.52 101.14 48.84 92.9401C61.0829 85.5401 73.8813 79.1008 87.12 73.6801C99.7111 68.4495 112.581 63.916 125.67 60.1001H125.76L126.76 59.8101H126.94L128.1 59.4801H128.19H128.31L129.31 59.2101H129.47H129.61L130.61 58.9301H130.69H130.77L131.68 58.6801H131.93L132.69 58.4701L132.94 58.4001L133.19 58.3401L133.45 58.2701L133.7 58.2001L133.95 58.1401L134.2 58.0701L134.45 58.0001L134.94 57.8801L135.42 57.7501L135.67 57.6901L135.91 57.6201L136.16 57.5601L136.41 57.5001L136.65 57.4301L136.9 57.3701L137.15 57.3101L137.39 57.2501L137.84 57.1301L138.08 57.0701L138.33 57.0101L138.57 56.9501L138.81 56.8901L139.29 56.7701L139.77 56.6501L140.01 56.5901L140.24 56.5301L140.72 56.4201L141.43 56.2501H141.52H141.62L142.08 56.1401H142.17H142.27L142.73 56.0301H142.82L143.52 55.8701C144.77 55.5801 146.01 55.3101 147.22 55.0501C152.17 53.9901 156.78 53.1601 160.93 52.5801L186.24 49.0401L167.38 56.1201L167.14 56.3101L166.89 56.4901L166.65 56.6801L166.46 56.8301L166.22 57.0101L165.98 57.1901L165.86 57.2801L165.74 57.3801L165.51 57.5601L165.27 57.7401L165.09 57.8801H165.03L164.8 58.0601L164.57 58.2401L164.33 58.4201L164.1 58.5901L163.87 58.7701L163.64 58.9501L163.58 59.0001L163.42 59.1201L163.19 59.3001L162.96 59.4701L162.84 59.5701L162.74 59.6401L162.11 60.1301L161.89 60.3001L161.67 60.4701L161.45 60.6401L161.25 60.7901L161.03 60.9601L160.81 61.1301L160.6 61.2901L160.38 61.4601L160.17 61.6201L160.03 61.7201L159.95 61.7901L159.74 61.9501L159.34 62.2601L159.13 62.4201L158.92 62.5801L158.71 62.7401L158.53 62.8801L158.32 63.0401L157.9 63.3501L157.7 63.5101L157.08 63.9801L156.88 64.1401L156.47 64.4501L156.27 64.6001L156.06 64.7501L155.9 64.8801L155.7 65.0301L155.5 65.1801L155.41 65.2501L155.3 65.3301L155.1 65.4801L154.9 65.6301L154.76 65.7401L154.56 65.8901L154.36 66.0401L154.16 66.1901L153.97 66.3401L153.77 66.4901C144.32 73.6201 136.45 79.3001 125 87.0801C130.168 84.6887 135.806 83.4891 141.5 83.5701L158.32 81.3301Z" fill="#D16E04"/>
<path fill-rule="evenodd" clip-rule="evenodd" d="M108.54 70.4701C111.62 68.7601 114.45 67.31 117.17 66.04C107.52 69.1 97.4599 72.74 87.5199 76.88C74.7578 82.0996 62.4121 88.2842 50.5899 95.38L50.0599 95.7101L49.4599 96.08L48.8799 96.45L48.2999 96.8101C36.1599 104.48 25.8099 112.93 18.7999 121.99C12.8799 129.64 9.39993 137.7 9.40993 145.99V146.39C9.40993 146.53 9.40993 146.66 9.40993 146.8V147.8V147.9V148.12C9.40993 148.77 9.53993 149.43 9.62993 150.12V150.45C9.79993 151.52 10.0199 152.59 10.2899 153.63V153.68V153.79V153.85V153.91V153.97V154.02V154.08C11.0286 156.739 12.4012 159.178 14.2899 161.19C16.6817 163.592 19.5314 165.49 22.6699 166.77C27.1243 168.619 31.7894 169.912 36.5599 170.62C43.0002 171.621 49.503 172.165 56.0199 172.25C67.0684 172.532 78.1185 171.759 89.0199 169.94C84.8149 169.547 80.6605 168.729 76.6199 167.5C65.1299 163.94 53.9499 156.5 42.8999 141.56L20.0799 151.49L22.9399 142.57C25.1469 136.363 28.3229 130.544 32.3499 125.33C36.6262 119.563 41.4705 114.24 46.8099 109.44C52.4731 104.322 58.4588 99.5722 64.7299 95.2201C71.0899 90.7501 77.8099 86.53 84.5999 82.6C91.7199 78.44 99.9899 74.3301 108.54 70.4701Z" fill="#D16E04"/>
<path fill-rule="evenodd" clip-rule="evenodd" d="M122.67 64.3301C110.748 67.9111 99.0163 72.0965 87.5199 76.8701C74.7578 82.0897 62.4121 88.2742 50.5899 95.3701L50.0599 95.7001L49.4599 96.0701L48.8799 96.4401L48.2999 96.8001C36.1599 104.47 25.8099 112.92 18.7999 121.98C12.8799 129.63 9.39993 137.69 9.40993 145.98V146.38C9.40993 146.52 9.40993 146.65 9.40993 146.79V147.79V147.89V148.11C9.40993 148.76 9.53993 149.42 9.62993 150.11V150.44C9.79993 151.51 10.0199 152.58 10.2899 153.62V153.67V153.78V153.84V153.9V153.96V154.01V154.07C11.0286 156.729 12.4012 159.168 14.2899 161.18C16.6817 163.582 19.5314 165.48 22.6699 166.76C27.1243 168.609 31.7894 169.902 36.5599 170.61C43.0002 171.611 49.503 172.155 56.0199 172.24C67.0684 172.522 78.1185 171.749 89.0199 169.93C84.8149 169.537 80.6605 168.719 76.6199 167.49C65.1299 163.93 53.9499 156.49 42.8999 141.55L20.0799 151.48L22.9399 142.56C25.1478 136.356 28.3238 130.541 32.3499 125.33C36.6262 119.563 41.4705 114.24 46.8099 109.44C52.4731 104.322 58.4588 99.5722 64.7299 95.2201C71.0899 90.7501 77.8099 86.5301 84.5999 82.6001C95.6099 76.1901 109.37 69.8901 122.67 64.3301Z" fill="#D16E04"/>
<path fill-rule="evenodd" clip-rule="evenodd" d="M75.55 105.98V119.48H86.91C87.4143 119.451 87.9188 119.531 88.3897 119.714C88.8606 119.897 89.2869 120.179 89.64 120.54C90.3271 121.306 90.6862 122.312 90.64 123.34C90.6673 124.368 90.3108 125.37 89.64 126.15C89.297 126.529 88.8742 126.826 88.402 127.022C87.9299 127.217 87.4203 127.305 86.91 127.28H60.0099L53.46 134.24C55.1489 136.607 57.072 138.798 59.2 140.78H89.83C91.9403 140.814 94.0341 140.402 95.9744 139.571C97.9147 138.741 99.6578 137.51 101.09 135.96C104.15 132.76 105.68 128.553 105.68 123.34C105.703 120.998 105.058 118.698 103.82 116.71C102.803 114.893 101.14 113.525 99.16 112.88C101.087 111.856 102.719 110.355 103.9 108.52C105.11 106.579 105.729 104.327 105.68 102.04C105.68 96.8798 104.177 92.6964 101.17 89.4898C99.0742 87.1914 96.2995 85.622 93.2499 85.0098C86.3237 88.9365 79.6748 93.3335 73.35 98.1698H86.95C87.454 98.144 87.9578 98.2252 88.4283 98.4078C88.8988 98.5905 89.3253 98.8706 89.6799 99.2298C90.3631 100.002 90.7213 101.009 90.6799 102.04C90.7087 103.065 90.3519 104.064 89.6799 104.84C89.3388 105.221 88.9166 105.522 88.4442 105.719C87.9718 105.917 87.4612 106.006 86.95 105.98H75.55Z" fill="#D16E04"/>
<path fill-rule="evenodd" clip-rule="evenodd" d="M173.46 127.33C171.111 132.099 168.286 136.618 165.03 140.82H139.69C123.32 140.82 108.16 130.15 108.16 112.77C108.16 99.61 117 90.23 128.4 86.5C136.4 83.88 146.4 84.72 154.84 84.72L139.61 98.23C130.1 97.75 123.09 102.64 123.09 112.73C123.09 122.11 132.24 127.28 140.75 127.28H173.46V127.33Z" fill="#D16E04"/>
<path fill-rule="evenodd" clip-rule="evenodd" d="M158.32 81.3301L158.53 81.1501L159.12 80.6801L159.33 80.5101L159.91 80.0301L160.12 79.8601L160.71 79.3801L160.91 79.2201L161.51 78.7301L161.71 78.5701L162.31 78.0701L162.51 77.9101L163.12 77.4201L163.31 77.2601L163.92 76.7601L164.11 76.6001L164.72 76.0901L164.91 75.9401L165.53 75.4301L165.72 75.2801L166.34 74.7601L168.72 72.7601L168.9 72.6201L169.12 72.4301L169.7 71.9501L170.34 71.4101L171.01 70.8501L171.13 70.7501L171.29 70.6101L171.94 70.0701L172.1 69.9301L172.75 69.3801L172.9 69.2501L173.55 68.7001L173.7 68.5701L174.36 68.0101L174.51 67.8801L175.16 67.3201L175.31 67.1901L175.97 66.6201L176.11 66.5001L176.77 65.9301L176.91 65.8101L177.57 65.2301L178.03 64.8301L178.34 64.5601L178.47 64.4501L179.13 63.8601L179.26 63.7501L179.93 63.1601L180.05 63.0501L180.3 62.8301L180.8 62.3801L181.47 61.7701L181.98 61.3201L182.26 61.0601L182.37 60.9601L182.57 60.7801L183.14 60.2601L183.21 60.2001L183.9 59.5701L184.57 58.9501L184.67 58.8601L184.93 58.6301L185.43 58.1601L185.53 58.0601L186.19 57.4401L186.87 56.8001L188.46 55.3301L188.59 55.2001L188.67 55.1301L188.94 54.8601L189.42 54.4101L190.1 53.7601L190.17 53.6801L190.36 53.5001L190.91 52.9601L191.58 52.3001L191.99 51.9001L192.3 51.5801L192.37 51.5201L193.04 50.8501C193.44 50.4501 193.84 50.0401 194.23 49.6301L194.53 49.3301L195.19 48.6401V48.5901L195.41 48.3601L195.89 47.8501L196.54 47.1501L196.59 47.1001C196.81 46.8701 197.03 46.6401 197.24 46.4001C197.46 46.1601 197.68 45.9301 197.89 45.6901C198.11 45.4501 198.32 45.2101 198.54 44.9801L199.19 44.2601L199.83 43.5401L200.47 42.8201L201.12 42.0601C201.34 41.8201 201.55 41.5701 201.75 41.3301L202.38 40.5901C202.59 40.3401 202.8 40.1001 203 39.8501L203.61 39.1001C203.81 38.8401 204.02 38.5901 204.22 38.3401L204.82 37.5801L205.41 36.8201L206 36.0501C156 32.1101 -0.999966 82.6401 -0.339966 138.71C-0.239966 147.28 1.82003 154.6 6.41003 160.49V160.43V160.37V160.31V160.26V160.2V160.15V160.09V160.03V159.97V159.91V159.86V159.8V159.74V159.68V159.62V159.56V159.51V159.39V159.34V159.28V159.22V159.16V159.04V158.98V158.92V158.86V158.81V158.69V158.63V158.57V158.51V158.33V158.28V158.16V158.09V158.02V157.94V157.87V157.79V157.71V157.63V157.56V157.48V157.42V157.35V157.28V157.22V157.16V157.09V157.03V156.96V156.89V156.82V156.76V156.69V156.56V156.49V156.42V156.36V156.29C6.17003 155.29 5.98001 154.29 5.82001 153.23C5.63669 151.954 5.51989 150.669 5.47003 149.38V149.25V149.12V148.99C5.19003 138.86 9.24003 129.21 16.31 120.19C24.07 110.3 35.52 101.14 48.84 92.9401C61.0829 85.5401 73.8813 79.1008 87.12 73.6801C99.7111 68.4495 112.581 63.916 125.67 60.1001H125.76L126.76 59.8101H126.94L128.1 59.4801H128.19H128.31L129.31 59.2101H129.47H129.61L130.61 58.9301H130.69H130.77L131.68 58.6801H131.93L132.69 58.4701L132.94 58.4001L133.19 58.3401L133.45 58.2701L133.7 58.2001L133.95 58.1401L134.2 58.0701L134.45 58.0001L134.94 57.8801L135.42 57.7501L135.67 57.6901L135.91 57.6201L136.16 57.5601L136.41 57.5001L136.65 57.4301L136.9 57.3701L137.15 57.3101L137.39 57.2501L137.84 57.1301L138.08 57.0701L138.33 57.0101L138.57 56.9501L138.81 56.8901L139.29 56.7701L139.77 56.6501L140.01 56.5901L140.24 56.5301L140.72 56.4201L141.43 56.2501H141.52H141.62L142.08 56.1401H142.17H142.27L142.73 56.0301H142.82L143.52 55.8701C144.77 55.5801 146.01 55.3101 147.22 55.0501C152.17 53.9901 156.78 53.1601 160.93 52.5801L186.24 49.0401L167.38 56.1201L167.14 56.3101L166.89 56.4901L166.65 56.6801L166.46 56.8301L166.22 57.0101L165.98 57.1901L165.86 57.2801L165.74 57.3801L165.51 57.5601L165.27 57.7401L165.09 57.8801H165.03L164.8 58.0601L164.57 58.2401L164.33 58.4201L164.1 58.5901L163.87 58.7701L163.64 58.9501L163.58 59.0001L163.42 59.1201L163.19 59.3001L162.96 59.4701L162.84 59.5701L162.74 59.6401L162.11 60.1301L161.89 60.3001L161.67 60.4701L161.45 60.6401L161.25 60.7901L161.03 60.9601L160.81 61.1301L160.6 61.2901L160.38 61.4601L160.17 61.6201L160.03 61.7201L159.95 61.7901L159.74 61.9501L159.34 62.2601L159.13 62.4201L158.92 62.5801L158.71 62.7401L158.53 62.8801L158.32 63.0401L157.9 63.3501L157.7 63.5101L157.08 63.9801L156.88 64.1401L156.47 64.4501L156.27 64.6001L156.06 64.7501L155.9 64.8801L155.7 65.0301L155.5 65.1801L155.41 65.2501L155.3 65.3301L155.1 65.4801L154.9 65.6301L154.76 65.7401L154.56 65.8901L154.36 66.0401L154.16 66.1901L153.97 66.3401L153.77 66.4901C144.32 73.6201 136.45 79.3001 125 87.0801C130.168 84.6887 135.806 83.4891 141.5 83.5701L158.32 81.3301Z" fill="#D16E04"/>
</g>
<defs>
<clipPath id="clip0_235_312">
<rect width="206.34" height="184.28" fill="white"/>
</clipPath>
</defs>
</svg>
