<svg width="88" height="35" viewBox="0 0 88 35" fill="none" xmlns="http://www.w3.org/2000/svg">
<path fill-rule="evenodd" clip-rule="evenodd" d="M61.1479 16.8146C61.1479 16.8146 58.363 17.8204 59.9465 19.1423C61.53 20.4642 64.1581 16.5073 69.2377 19.4119C69.2377 19.4119 66.8525 15.0174 61.1479 16.8146Z" fill="#D507D3"/>
<path fill-rule="evenodd" clip-rule="evenodd" d="M14.0512 17.7163C14.5664 17.6674 15.0821 17.8036 15.5062 18.1005C15.9302 18.3973 16.2349 18.8355 16.3658 19.3366C16.4208 19.6107 16.42 19.893 16.3635 20.1668C16.3071 20.4406 16.196 20.7001 16.0371 20.93C15.8782 21.1598 15.6746 21.3553 15.4385 21.5046C15.2024 21.6539 14.9386 21.7541 14.663 21.7991C13.3026 22.0688 12.1078 21.136 12.0282 19.9113C11.951 18.7508 12.8918 17.8047 14.0512 17.7163Z" fill="#6622CC"/>
<path fill-rule="evenodd" clip-rule="evenodd" d="M0.5 6.88695C0.517668 11.434 3.93866 13.6998 7.3221 13.6998C9.77576 13.6998 12.3023 12.6344 13.2542 9.85571C13.7091 8.56254 13.7091 7.28706 13.634 5.95631H7.34198V8.91181H10.1733C9.56595 10.1851 8.69138 10.5476 7.3221 10.5476C5.30794 10.5476 4.00933 9.10191 4.00933 6.89358C4.00933 4.85767 5.1688 3.18429 7.3221 3.18429C8.67371 3.18429 9.54608 3.64187 10.0982 4.78251H13.4441C12.797 1.4667 10.0032 0.0828973 7.3221 0.0630024C3.93866 0.069634 0.517668 2.33986 0.5 6.88695ZM24.3166 13.554H27.6426V13.0588L21.6355 0.0696337H20.1734L14.184 13.0522V13.554H17.5122L18.2918 11.8784H23.5481L24.3166 13.554ZM22.4438 8.96265H19.3938L20.8956 5.46115L22.4438 8.96265ZM31.2779 9.47549H27.985C27.9077 15.3356 38.7426 15.2406 38.7426 9.64571C38.7426 6.31663 36.1587 5.91652 33.5173 5.63136C32.3181 5.49873 31.3309 5.28872 31.4059 4.28072C31.5208 2.70239 35.0942 2.54986 35.0942 4.3183H38.3252C38.4025 -1.42911 28.06 -1.42911 28.1661 4.3183C28.2036 7.2119 30.1051 8.20002 32.9939 8.41002C34.319 8.48518 35.4232 8.69517 35.4232 9.62802C35.4365 11.1887 31.2779 11.1688 31.2779 9.47549ZM48.5043 9.22791V6.184H44.2175V3.27271H49.0454V0.228793H40.759V13.554H44.2175V9.22791H48.5043ZM64.0323 6.90684C64.0323 -2.30228 50.3859 -2.30228 50.3859 6.90684C50.3859 16.116 64.0323 16.1337 64.0323 6.90684ZM53.8732 6.90684C53.8732 2.11217 60.5451 2.11217 60.5451 6.90684C60.5451 11.7391 53.8732 11.7391 53.8732 6.90684ZM74.7458 8.82781C78.1094 6.54653 77.1597 0.248688 71.9322 0.228793H66.0973V13.554H69.4984V9.62802H71.2652L73.5466 13.554H77.3497V13.0588L74.7458 8.82781ZM71.9322 6.60179H69.5028V3.27271C70.3023 3.27271 71.1371 3.25503 71.9322 3.27271C73.8713 3.2926 73.7763 6.60179 71.9322 6.60179ZM80.8855 3.27271V13.554H84.2491V3.27271H87.5V0.228793H77.6147V3.27271H80.8855Z" fill="white"/>
<path fill-rule="evenodd" clip-rule="evenodd" d="M85.3866 18.5986C85.3866 18.5986 84.3398 33.312 62.4004 29.249C35.0148 24.1803 38.9902 19.5447 22.5809 25.186C4.54176 31.3866 3.1261 20.4665 3.1261 20.4665C3.1261 20.4665 9.53079 26.9456 20.739 22.7434C25.3504 21.0148 31.2824 16.2002 38.7229 16.3196C48.9351 16.4854 47.7381 25.9752 60.5872 26.0968C68.158 26.1697 76.3649 19.6862 76.6056 19.7282C76.6387 19.7437 85.221 17.4668 85.3866 18.5986Z" fill="url(#paint0_linear_94_957)"/>
<path fill-rule="evenodd" clip-rule="evenodd" d="M7.24056 28.4687C7.24056 28.4687 14.9527 33.4889 24.7276 28.8224C33.2105 24.7749 37.0003 25.7851 40.6973 26.7268C48.288 28.6588 52.9723 35.7901 63.3324 32.377C67.4358 31.0219 68.041 24.9849 68.041 24.9849C68.041 24.9849 58.3897 17.1419 48.3852 23.2496L37.7291 22.4649L28.9812 24.1096C28.9812 24.1096 11.9977 30.6417 4.02496 20.6058C3.71577 20.2168 2.81911 20.1637 2.55851 19.9162C1.80319 19.1778 1.494 18.4948 1.42995 18.844C0.99046 21.269 2.62697 25.6039 7.24056 28.4687Z" fill="url(#paint1_linear_94_957)"/>
<path fill-rule="evenodd" clip-rule="evenodd" d="M4.53967 24.1645C4.53967 24.1645 10.5844 29.6666 20.5867 26.7752C30.2313 23.9855 33.3961 22.7122 40.2734 23.7821C48.4449 25.051 51.6583 33.0664 58.3832 33.1592C64.2314 33.2432 66.5702 30.9487 71.3649 25.4334C74.3729 21.9739 77.4781 18.9034 84.2074 18.7045C86.555 18.6337 85.2785 18.0568 82.286 17.9131C78.7148 17.7429 72.4073 18.2801 66.7447 22.9974C56.7799 31.2935 50.8434 15.5766 28.1134 23.0792C13.2412 27.9888 7.93857 23.917 2.23398 19.1002C0.769738 17.8667 1.80774 20.1679 1.80774 20.1679C1.80774 20.1679 3.11739 22.9222 4.53967 24.1645Z" fill="url(#paint2_linear_94_957)"/>
<path fill-rule="evenodd" clip-rule="evenodd" d="M76.7178 30.3918C77.2874 30.3699 77.8446 30.5618 78.2801 30.9299C78.7157 31.2979 78.9981 31.8156 79.072 32.3813C79.1405 32.9413 79.0042 33.5071 78.6884 33.9744C78.3726 34.4416 77.8986 34.7787 77.3538 34.9234C77.0661 35.0002 76.7661 35.0195 76.471 34.9802C76.1758 34.9409 75.8913 34.8437 75.6337 34.6942C75.376 34.5448 75.1504 34.346 74.9696 34.1092C74.7888 33.8724 74.6564 33.6022 74.5799 33.3142C74.5578 33.2304 74.5401 33.1456 74.5269 33.0599C74.4315 32.4558 74.5796 31.8385 74.9387 31.3437C75.2977 30.8488 75.8383 30.5167 76.4417 30.4206C76.5329 30.4044 76.6252 30.3948 76.7178 30.3918Z" fill="#FADD2E"/>
<path fill-rule="evenodd" clip-rule="evenodd" d="M29.2593 29.5627C29.2593 29.5627 26.6577 32.0606 29.4935 32.7945C32.5699 33.5925 34.255 28.2452 43.2989 32.5734C43.2989 32.5646 35.4366 24.5447 29.2593 29.5627Z" fill="#781ECD"/>
<defs>
<linearGradient id="paint0_linear_94_957" x1="43.0737" y1="15.9836" x2="47.5091" y2="29.6202" gradientUnits="userSpaceOnUse">
<stop stop-color="#F9C540"/>
<stop offset="1" stop-color="#FAE925"/>
</linearGradient>
<linearGradient id="paint1_linear_94_957" x1="38.0913" y1="17.8847" x2="28.6465" y2="32.4155" gradientUnits="userSpaceOnUse">
<stop stop-color="#811CCE"/>
<stop offset="0.68" stop-color="#F500D5"/>
<stop offset="1" stop-color="#F500D5"/>
</linearGradient>
<linearGradient id="paint2_linear_94_957" x1="85.4221" y1="25.7959" x2="1.48525" y2="24.333" gradientUnits="userSpaceOnUse">
<stop stop-color="#5409EA"/>
<stop offset="0.49" stop-color="#FD00F7"/>
<stop offset="1" stop-color="#FD00F7"/>
</linearGradient>
</defs>
</svg>
