<svg width="20" height="18" viewBox="0 0 20 18" fill="none" xmlns="http://www.w3.org/2000/svg">
<path d="M19.5 1.05982V1.15468C18.4783 6.37597 17.4543 11.5968 16.4281 16.817C16.3895 17.0136 16.3511 17.1455 16.313 17.2128C16.1709 17.4644 15.7883 17.5794 15.549 17.4401C13.8889 16.4725 12.2278 15.5051 10.5655 14.538C10.5611 14.5354 10.5559 14.5346 10.5509 14.5356C10.5459 14.5367 10.5415 14.5396 10.5385 14.5437C9.87173 15.4478 9.20561 16.3522 8.54012 17.2568C8.26588 17.6295 7.67918 17.5524 7.51812 17.1206C7.48448 17.0303 7.46753 16.8668 7.46729 16.63C7.46704 14.9166 7.46716 13.2031 7.46766 11.4895C7.46803 11.1279 7.56191 11.0091 7.81277 10.783C8.57871 10.0929 9.34304 9.40048 10.1058 8.70582C10.1157 8.69697 10.1147 8.6952 10.1028 8.70051C10.0412 8.72884 9.94409 8.78247 9.81148 8.8614C8.56016 9.60614 7.30673 10.3475 6.05119 11.0854C5.85031 11.2035 5.63495 11.204 5.40512 11.0869C3.92569 10.3325 2.44614 9.57832 0.966465 8.82421C0.690371 8.68344 0.535996 8.56201 0.5 8.25541V8.16055C0.534883 7.90454 0.662539 7.73265 0.882969 7.64487C6.48549 5.41039 12.0876 3.17528 17.6894 0.939529C18.0237 0.805961 18.3586 0.67429 18.6944 0.544517C19.0922 0.390458 19.425 0.654179 19.5 1.05982ZM2.59779 8.29905L5.70199 9.881C5.70746 9.88379 5.7135 9.88515 5.71953 9.88495C5.72556 9.88476 5.7314 9.883 5.7365 9.87986C8.7295 8.10047 11.7211 6.3188 14.7114 4.53486C15.336 4.16224 15.9624 5.02436 15.4432 5.4945C13.185 7.54027 10.9267 9.58641 8.66852 11.6329C8.66419 11.6369 8.66074 11.6417 8.65837 11.6471C8.656 11.6524 8.65478 11.6582 8.65479 11.6641V15.0298C8.65479 15.0657 8.6653 15.0693 8.68633 15.0404C9.06509 14.5239 9.44447 14.0087 9.82447 13.4949C10.1061 13.1136 10.3633 13.024 10.7882 13.2714C12.3151 14.1588 13.8422 15.0479 15.3694 15.9386C15.3715 15.9399 15.3739 15.9406 15.3764 15.9407C15.3788 15.9408 15.3813 15.9403 15.3835 15.9393C15.3858 15.9383 15.3877 15.9367 15.3893 15.9347C15.3908 15.9328 15.3919 15.9305 15.3924 15.928L18.1047 2.10787C18.1086 2.08789 18.1013 2.08169 18.0828 2.08928L2.59928 8.26376C2.57305 8.27438 2.57256 8.28615 2.59779 8.29905Z" fill="#91DAFF"/>
</svg>
