<svg width="17" height="18" viewBox="0 0 17 18" fill="none" xmlns="http://www.w3.org/2000/svg">
<path d="M8.26207 0.494141H8.72742C11.7685 0.595522 14.4882 2.25186 15.9581 4.90406C16.7383 6.31165 17.0803 7.82727 16.9842 9.45092C16.7385 13.6079 13.3637 16.9913 9.23366 17.3287C7.64392 17.4586 6.13029 17.1696 4.69278 16.4618C4.68312 16.4571 4.67209 16.4558 4.66154 16.4582L0.0585019 17.5052C0.0547371 17.5061 0.0508132 17.506 0.0470944 17.505C0.0433756 17.5039 0.0399826 17.5019 0.0372304 17.4991C0.0344782 17.4964 0.032456 17.493 0.0313515 17.4892C0.0302471 17.4855 0.0300962 17.4815 0.0309129 17.4776L1.02877 12.9428C1.0337 12.92 1.0304 12.8963 1.01946 12.8759C0.394556 11.7134 0.0547347 10.4718 0 9.1511V8.69405C0.159551 4.17278 3.77171 0.657015 8.26207 0.494141ZM2.43747 12.722L1.77301 15.7392C1.7727 15.7408 1.77278 15.7423 1.77326 15.7438C1.77373 15.7454 1.77458 15.7467 1.77573 15.7478C1.77688 15.749 1.77829 15.7498 1.77984 15.7502C1.78139 15.7507 1.78304 15.7508 1.78464 15.7505L4.84635 15.0541C4.85662 15.0518 4.8675 15.0533 4.87693 15.0585C5.16102 15.2091 5.36977 15.315 5.50317 15.3759C9.5059 17.2044 14.3011 15.0375 15.4399 10.7237C16.4816 6.77545 13.8852 2.73982 9.90311 1.96034C5.54671 1.10741 1.39574 4.36491 1.32992 8.83532C1.31363 9.94021 1.58587 11.0521 2.08014 12.0356C2.17299 12.2207 2.29055 12.4392 2.43282 12.6911C2.43797 12.7006 2.43961 12.7115 2.43747 12.722Z" fill="white"/>
<path d="M6.24032 5.21693C6.5099 5.22159 6.62291 5.53504 6.70634 5.7378C6.8854 6.17147 7.06411 6.60536 7.2425 7.03947C7.38011 7.37452 6.91974 7.78636 6.69903 8.01605C6.53483 8.1869 6.63155 8.31222 6.74357 8.49736C7.37601 9.54131 8.26606 10.2861 9.41372 10.7317C9.57128 10.7929 9.6567 10.7251 9.76307 10.6024C9.93813 10.4003 10.1494 10.1394 10.397 9.81964C10.5558 9.61388 10.9095 9.82363 11.1026 9.91637C11.5148 10.1147 11.9253 10.3166 12.3342 10.522C12.4415 10.5758 12.507 10.6194 12.5123 10.7523C12.5236 11.0504 12.4704 11.3337 12.3528 11.6023C12.2025 11.946 11.7688 12.2295 11.4374 12.3688C11.0661 12.5247 10.6014 12.5519 10.2125 12.4695C9.7562 12.3733 9.25683 12.2133 8.71436 11.9895C7.54266 11.5066 6.56308 10.623 5.80488 9.62186C5.29764 8.95208 4.77877 8.24408 4.64947 7.41641C4.52693 6.63151 4.76415 5.9563 5.36113 5.39078C5.60013 5.16408 5.93751 5.21161 6.24032 5.21693Z" fill="white"/>
</svg>
