<svg width="127" height="19" viewBox="0 0 127 19" fill="none" xmlns="http://www.w3.org/2000/svg">
<path d="M5.50293 6.62598C5.09733 6.62598 4.7373 6.70573 4.42285 6.86523C4.11296 7.02018 3.85091 7.24577 3.63672 7.54199C3.42708 7.83822 3.26758 8.19596 3.1582 8.61523C3.04883 9.03451 2.99414 9.50618 2.99414 10.0303C2.99414 10.7367 3.08073 11.3405 3.25391 11.8418C3.43164 12.3385 3.70508 12.7191 4.07422 12.9834C4.44336 13.2432 4.9196 13.373 5.50293 13.373C5.90853 13.373 6.31413 13.3275 6.71973 13.2363C7.12988 13.1452 7.57422 13.0153 8.05273 12.8467V14.624C7.61068 14.8063 7.17546 14.9362 6.74707 15.0137C6.31868 15.0957 5.83789 15.1367 5.30469 15.1367C4.27474 15.1367 3.42708 14.9248 2.76172 14.501C2.10091 14.0726 1.611 13.4756 1.29199 12.71C0.972982 11.9398 0.813477 11.042 0.813477 10.0166C0.813477 9.26009 0.916016 8.56738 1.12109 7.93848C1.32617 7.30957 1.62695 6.76497 2.02344 6.30469C2.41992 5.8444 2.90983 5.48893 3.49316 5.23828C4.0765 4.98763 4.74642 4.8623 5.50293 4.8623C5.99967 4.8623 6.49642 4.92611 6.99316 5.05371C7.49447 5.17676 7.97298 5.34766 8.42871 5.56641L7.74512 7.28906C7.37142 7.11133 6.99544 6.95638 6.61719 6.82422C6.23893 6.69206 5.86751 6.62598 5.50293 6.62598ZM19.6533 7.35742V15H17.7051V11.2471C17.7051 10.8779 17.7119 10.5156 17.7256 10.1602C17.7393 9.80469 17.7598 9.47656 17.7871 9.17578H17.7461L15.6338 15H14.0684L11.9219 9.16211H11.8672C11.9036 9.46745 11.9287 9.79557 11.9424 10.1465C11.9561 10.4974 11.9629 10.8825 11.9629 11.3018V15H10.0215V7.35742H12.9746L14.875 12.5391L16.8096 7.35742H19.6533ZM28.793 11.165C28.793 11.8031 28.7064 12.3682 28.5332 12.8604C28.3646 13.3525 28.1162 13.7695 27.7881 14.1113C27.4645 14.4486 27.0726 14.7038 26.6123 14.877C26.1566 15.0501 25.6416 15.1367 25.0674 15.1367C24.5296 15.1367 24.0352 15.0501 23.584 14.877C23.1374 14.7038 22.7477 14.4486 22.415 14.1113C22.0869 13.7695 21.8317 13.3525 21.6494 12.8604C21.4717 12.3682 21.3828 11.8031 21.3828 11.165C21.3828 10.3174 21.5332 9.59961 21.834 9.01172C22.1348 8.42383 22.5632 7.97721 23.1191 7.67188C23.6751 7.36654 24.3382 7.21387 25.1084 7.21387C25.8239 7.21387 26.4574 7.36654 27.0088 7.67188C27.5648 7.97721 28 8.42383 28.3145 9.01172C28.6335 9.59961 28.793 10.3174 28.793 11.165ZM23.5088 11.165C23.5088 11.6663 23.5635 12.0879 23.6729 12.4297C23.7822 12.7715 23.9531 13.029 24.1855 13.2021C24.418 13.3753 24.721 13.4619 25.0947 13.4619C25.4639 13.4619 25.7624 13.3753 25.9902 13.2021C26.2227 13.029 26.3913 12.7715 26.4961 12.4297C26.6055 12.0879 26.6602 11.6663 26.6602 11.165C26.6602 10.6592 26.6055 10.2399 26.4961 9.90723C26.3913 9.56999 26.2227 9.31706 25.9902 9.14844C25.7578 8.97982 25.4548 8.89551 25.0811 8.89551C24.5296 8.89551 24.1286 9.08464 23.8779 9.46289C23.6318 9.84115 23.5088 10.4085 23.5088 11.165ZM36.8389 8.92285H34.3369V15H32.252V8.92285H29.7432V7.35742H36.8389V8.92285ZM42.5195 7.21387C43.3809 7.21387 44.0758 7.54883 44.6045 8.21875C45.1377 8.88867 45.4043 9.87077 45.4043 11.165C45.4043 12.0309 45.279 12.7601 45.0283 13.3525C44.7777 13.9404 44.4313 14.3848 43.9893 14.6855C43.5472 14.9863 43.0391 15.1367 42.4648 15.1367C42.0957 15.1367 41.779 15.0911 41.5146 15C41.2503 14.9043 41.0247 14.7835 40.8379 14.6377C40.651 14.4873 40.4893 14.3278 40.3525 14.1592H40.2432C40.2796 14.3415 40.307 14.5283 40.3252 14.7197C40.3434 14.9111 40.3525 15.098 40.3525 15.2803V18.3633H38.2676V7.35742H39.9629L40.2568 8.34863H40.3525C40.4893 8.14355 40.6556 7.95443 40.8516 7.78125C41.0475 7.60807 41.2822 7.47135 41.5557 7.37109C41.8337 7.26628 42.1549 7.21387 42.5195 7.21387ZM41.8496 8.88184C41.485 8.88184 41.1956 8.95703 40.9814 9.10742C40.7673 9.25781 40.61 9.4834 40.5098 9.78418C40.4141 10.085 40.3617 10.4655 40.3525 10.9258V11.1514C40.3525 11.6436 40.3981 12.0605 40.4893 12.4023C40.585 12.7441 40.7422 13.0039 40.9609 13.1816C41.1842 13.3594 41.4896 13.4482 41.877 13.4482C42.196 13.4482 42.458 13.3594 42.6631 13.1816C42.8682 13.0039 43.0208 12.7441 43.1211 12.4023C43.2259 12.056 43.2783 11.6344 43.2783 11.1377C43.2783 10.3903 43.1621 9.82747 42.9297 9.44922C42.6973 9.07096 42.3372 8.88184 41.8496 8.88184ZM50.2783 7.21387C50.9847 7.21387 51.5931 7.35059 52.1035 7.62402C52.6139 7.8929 53.0081 8.28483 53.2861 8.7998C53.5641 9.31478 53.7031 9.94368 53.7031 10.6865V11.6982H48.7744C48.7972 12.2861 48.9727 12.7487 49.3008 13.0859C49.6335 13.4186 50.0938 13.585 50.6816 13.585C51.1693 13.585 51.6159 13.5348 52.0215 13.4346C52.4271 13.3343 52.8441 13.1839 53.2725 12.9834V14.5967C52.8942 14.7835 52.4977 14.9202 52.083 15.0068C51.6729 15.0934 51.1738 15.1367 50.5859 15.1367C49.8203 15.1367 49.1413 14.9954 48.5488 14.7129C47.9609 14.4303 47.4984 13.9997 47.1611 13.4209C46.8285 12.8421 46.6621 12.113 46.6621 11.2334C46.6621 10.3402 46.8125 9.59733 47.1133 9.00488C47.4186 8.40788 47.8424 7.96126 48.3848 7.66504C48.9271 7.36426 49.5583 7.21387 50.2783 7.21387ZM50.292 8.69727C49.8864 8.69727 49.5492 8.82715 49.2803 9.08691C49.016 9.34668 48.8633 9.75456 48.8223 10.3105H51.748C51.7435 10.0007 51.6865 9.72493 51.5771 9.4834C51.4723 9.24186 51.3128 9.05046 51.0986 8.90918C50.889 8.7679 50.6201 8.69727 50.292 8.69727ZM61.7217 8.92285H59.2197V15H57.1348V8.92285H54.626V7.35742H61.7217V8.92285ZM65.2354 10.3105H66.7051C67.4889 10.3105 68.1361 10.3926 68.6465 10.5566C69.1569 10.7207 69.5374 10.9714 69.7881 11.3086C70.0387 11.6413 70.1641 12.0605 70.1641 12.5664C70.1641 13.0586 70.0501 13.487 69.8223 13.8516C69.5944 14.2161 69.2321 14.4987 68.7354 14.6992C68.2386 14.8997 67.5892 15 66.7871 15H63.1504V7.35742H65.2354V10.3105ZM68.0791 12.5938C68.0791 12.2975 67.9606 12.0833 67.7236 11.9512C67.4867 11.819 67.1335 11.7529 66.6641 11.7529H65.2354V13.5576H66.6914C67.097 13.5576 67.4297 13.4847 67.6895 13.3389C67.9492 13.1885 68.0791 12.9401 68.0791 12.5938ZM78.5381 7.21387C79.2445 7.21387 79.8529 7.35059 80.3633 7.62402C80.8737 7.8929 81.2679 8.28483 81.5459 8.7998C81.8239 9.31478 81.9629 9.94368 81.9629 10.6865V11.6982H77.0342C77.057 12.2861 77.2324 12.7487 77.5605 13.0859C77.8932 13.4186 78.3535 13.585 78.9414 13.585C79.429 13.585 79.8757 13.5348 80.2812 13.4346C80.6868 13.3343 81.1038 13.1839 81.5322 12.9834V14.5967C81.154 14.7835 80.7575 14.9202 80.3428 15.0068C79.9326 15.0934 79.4336 15.1367 78.8457 15.1367C78.0801 15.1367 77.401 14.9954 76.8086 14.7129C76.2207 14.4303 75.7581 13.9997 75.4209 13.4209C75.0882 12.8421 74.9219 12.113 74.9219 11.2334C74.9219 10.3402 75.0723 9.59733 75.373 9.00488C75.6784 8.40788 76.1022 7.96126 76.6445 7.66504C77.1868 7.36426 77.818 7.21387 78.5381 7.21387ZM78.5518 8.69727C78.1462 8.69727 77.8089 8.82715 77.54 9.08691C77.2757 9.34668 77.123 9.75456 77.082 10.3105H80.0078C80.0033 10.0007 79.9463 9.72493 79.8369 9.4834C79.7321 9.24186 79.5726 9.05046 79.3584 8.90918C79.1488 8.7679 78.8799 8.69727 78.5518 8.69727ZM95.04 7.35742V13.4756H96.1611V17.7412H94.2812V15H83.6582V7.35742H85.7432V13.4346H88.3066V7.35742H90.3916V13.4346H92.9551V7.35742H95.04ZM100.604 7.21387C101.311 7.21387 101.919 7.35059 102.43 7.62402C102.94 7.8929 103.334 8.28483 103.612 8.7998C103.89 9.31478 104.029 9.94368 104.029 10.6865V11.6982H99.1006C99.1234 12.2861 99.2988 12.7487 99.627 13.0859C99.9596 13.4186 100.42 13.585 101.008 13.585C101.495 13.585 101.942 13.5348 102.348 13.4346C102.753 13.3343 103.17 13.1839 103.599 12.9834V14.5967C103.22 14.7835 102.824 14.9202 102.409 15.0068C101.999 15.0934 101.5 15.1367 100.912 15.1367C100.146 15.1367 99.4674 14.9954 98.875 14.7129C98.2871 14.4303 97.8245 13.9997 97.4873 13.4209C97.1546 12.8421 96.9883 12.113 96.9883 11.2334C96.9883 10.3402 97.1387 9.59733 97.4395 9.00488C97.7448 8.40788 98.1686 7.96126 98.7109 7.66504C99.2533 7.36426 99.8844 7.21387 100.604 7.21387ZM100.618 8.69727C100.213 8.69727 99.8753 8.82715 99.6064 9.08691C99.3421 9.34668 99.1895 9.75456 99.1484 10.3105H102.074C102.07 10.0007 102.013 9.72493 101.903 9.4834C101.799 9.24186 101.639 9.05046 101.425 8.90918C101.215 8.7679 100.946 8.69727 100.618 8.69727ZM98.1572 5.39551C98.1572 5.07194 98.2484 4.83724 98.4307 4.69141C98.6175 4.54557 98.8431 4.47266 99.1074 4.47266C99.3672 4.47266 99.5928 4.54557 99.7842 4.69141C99.9756 4.83724 100.071 5.07194 100.071 5.39551C100.071 5.70085 99.9756 5.92871 99.7842 6.0791C99.5928 6.22949 99.3672 6.30469 99.1074 6.30469C98.8431 6.30469 98.6175 6.22949 98.4307 6.0791C98.2484 5.92871 98.1572 5.70085 98.1572 5.39551ZM100.912 5.39551C100.912 5.07194 101.003 4.83724 101.186 4.69141C101.372 4.54557 101.603 4.47266 101.876 4.47266C102.136 4.47266 102.361 4.54557 102.553 4.69141C102.749 4.83724 102.847 5.07194 102.847 5.39551C102.847 5.70085 102.749 5.92871 102.553 6.0791C102.361 6.22949 102.136 6.30469 101.876 6.30469C101.603 6.30469 101.372 6.22949 101.186 6.0791C101.003 5.92871 100.912 5.70085 100.912 5.39551Z" fill="url(#paint0_linear_228_1469)"/>
<path d="M113 7L119.5 12L126 7" stroke="url(#paint1_linear_228_1469)" stroke-linecap="round" stroke-linejoin="round"/>
<defs>
<linearGradient id="paint0_linear_228_1469" x1="105" y1="19" x2="-0.797141" y2="7.06799" gradientUnits="userSpaceOnUse">
<stop stop-color="#F34900"/>
<stop offset="0.820824" stop-color="#FF9900"/>
</linearGradient>
<linearGradient id="paint1_linear_228_1469" x1="126" y1="12" x2="112.772" y2="11.2981" gradientUnits="userSpaceOnUse">
<stop stop-color="#F34900"/>
<stop offset="0.820824" stop-color="#FF9900"/>
</linearGradient>
</defs>
</svg>
