<svg width="43" height="43" viewBox="0 0 43 43" fill="none" xmlns="http://www.w3.org/2000/svg">
<path d="M19.9465 0.0126114C16.6965 0.323708 14.2463 1.02998 11.5857 2.4005C7.52732 4.50251 4.25201 7.84052 2.22283 11.9437C1.43979 13.516 1.07774 14.4829 0.665165 16.03C0.159977 17.9806 0.00841982 19.1662 0 21.3186C0 22.3949 0.0420991 23.5552 0.101038 24.0092C0.564128 27.4565 1.64186 30.4246 3.45212 33.1992L4.05835 34.1325L2.7196 38.0759C1.97866 40.2536 1.38927 42.0361 1.40611 42.0529C1.42295 42.0697 3.25847 41.498 5.49814 40.7833C7.73781 40.0686 9.59859 39.4801 9.64069 39.4801C9.67437 39.4801 10.0196 39.6734 10.4069 39.9173C10.7942 40.1527 11.6025 40.5899 12.2003 40.8758C17.6479 43.4739 23.8702 43.7009 29.4441 41.4896C35.759 38.9924 40.6088 33.5187 42.3433 26.9436C42.8737 24.9257 43 23.8242 43 21.4868C43 19.1494 42.8737 18.0479 42.3433 16.03C40.3057 8.31977 34.1171 2.32483 26.3035 0.500278C24.99 0.19759 23.626 0.0378342 21.9673 0.0126114C21.0411 -0.0042038 20.1318 -0.0042038 19.9465 0.0126114ZM14.8105 9.98457C14.9536 10.0602 15.1472 10.262 15.2483 10.447C15.4925 10.8926 17.5469 15.8114 17.6058 16.1141C17.6816 16.4924 17.3027 17.1398 16.4692 18.0815C15.5935 19.0653 15.4083 19.3764 15.484 19.7295C15.6272 20.3685 17.5722 22.9498 18.7762 24.0849C20.637 25.8422 23.4492 27.5154 24.7037 27.6079C25.3521 27.6499 25.5794 27.4733 26.5729 26.1617C27.0192 25.5647 27.4907 24.9677 27.6338 24.8332C27.9538 24.5053 28.4337 24.438 28.981 24.6398C29.6714 24.9005 33.9066 26.9605 34.2097 27.1875L34.496 27.3977L34.4455 28.2889C34.3276 30.5759 33.5193 31.7615 31.3975 32.7957C29.3767 33.7794 27.7938 33.7542 24.7037 32.6863C20.5444 31.2486 18.3468 29.8781 15.3577 26.8764C13.859 25.3797 12.7981 24.1101 11.5857 22.3697C9.58175 19.5109 8.81555 17.2996 9.04288 15.0546C9.22812 13.2553 9.8596 11.9268 11.131 10.6572C11.7456 10.0434 12.5455 9.79118 13.758 9.83323C14.2716 9.85004 14.6505 9.90049 14.8105 9.98457Z" fill="url(#paint0_linear_106_728)"/>
<defs>
<linearGradient id="paint0_linear_106_728" x1="43" y1="2.01035e-05" x2="-0.859283" y2="0.895107" gradientUnits="userSpaceOnUse">
<stop stop-color="#F34900"/>
<stop offset="0.820824" stop-color="#FF9900"/>
</linearGradient>
</defs>
</svg>
