<svg width="43" height="43" viewBox="0 0 43 43" fill="none" xmlns="http://www.w3.org/2000/svg">
<path d="M19.4553 0.053936C14.0648 0.609352 9.27134 3.02458 5.58796 7.03032C0.390847 12.6771 -1.34993 20.8653 1.08043 28.2372C2.18208 31.5781 3.92286 34.372 6.47096 36.8798C9.8516 40.2039 13.9555 42.1983 18.8667 42.8968C19.8674 43.0399 23.1723 43.0315 24.2067 42.8884C29.1347 42.2068 33.3816 40.1029 36.7958 36.6442C40.1933 33.2023 42.1864 29.1208 42.8928 24.1557C43.0357 23.1627 43.0357 19.847 42.8928 18.854C42.4891 16.018 41.665 13.4597 40.412 11.1959C39.428 9.40347 38.2843 7.87186 36.7958 6.3655C33.4488 2.97408 29.2861 0.870232 24.5011 0.163334C23.4667 0.0118561 20.4813 -0.0554657 19.4553 0.053936ZM31.5651 13.0389C31.9351 13.1988 32.1117 13.5523 32.1117 14.1413C32.1117 14.6799 28.5545 31.5781 28.3695 31.9484C28.1004 32.4701 27.5201 32.6637 26.9314 32.4449C26.7296 32.3691 24.787 30.9638 21.9446 28.8515L21.2382 28.3297L19.716 29.7856C18.5975 30.8459 18.1098 31.2667 17.908 31.3088C17.7566 31.3425 17.6136 31.3509 17.5968 31.3256C17.5716 31.3004 17.6304 30.0801 17.7314 28.599L17.908 25.9229L18.505 25.3759C18.8246 25.073 21.1036 23.0112 23.5592 20.7895C26.0232 18.5594 28.0331 16.6912 28.0331 16.6239C28.0331 16.5313 27.9406 16.4977 27.7387 16.5061C27.4949 16.5145 26.2502 17.2635 21.2045 20.4361C17.7818 22.5988 14.931 24.3661 14.8805 24.3661C14.6535 24.3661 9.34703 22.6577 9.09474 22.5063C8.55653 22.1696 8.67427 21.6731 9.37226 21.2776C9.55727 21.1766 10.8944 20.6296 12.3492 20.0742C13.8041 19.5104 16.554 18.45 18.4462 17.7179C20.3467 16.9858 23.7274 15.6814 25.9727 14.8146C30.8923 12.9127 30.8419 12.9295 31.0857 12.9211C31.1867 12.9211 31.4053 12.9716 31.5651 13.0389Z" fill="url(#paint0_linear_106_731)"/>
<defs>
<linearGradient id="paint0_linear_106_731" x1="43" y1="2.01035e-05" x2="-0.859283" y2="0.895107" gradientUnits="userSpaceOnUse">
<stop stop-color="#F34900"/>
<stop offset="0.820824" stop-color="#FF9900"/>
</linearGradient>
</defs>
</svg>
