<svg width="31" height="32" viewBox="0 0 31 32" fill="none" xmlns="http://www.w3.org/2000/svg">
<rect y="0.376953" width="31" height="31" rx="6" fill="url(#paint0_linear_357_341)"/>
<path fill-rule="evenodd" clip-rule="evenodd" d="M19.977 25.3743C18.6067 25.3238 14.7232 24.7872 10.656 20.7218C6.58975 16.6555 6.054 12.7737 6.00261 11.4027C5.92648 9.31344 7.52709 7.28407 9.37606 6.49155C9.59872 6.39542 9.84254 6.35882 10.0836 6.38534C10.3247 6.41186 10.5547 6.50059 10.7511 6.64282C12.2737 7.75217 13.3243 9.43046 14.2264 10.7501C14.4249 11.04 14.5098 11.3928 14.4648 11.7413C14.4199 12.0897 14.2483 12.4095 13.9828 12.6396L12.1262 14.0182C12.0365 14.0829 11.9734 14.178 11.9485 14.2858C11.9237 14.3936 11.9388 14.5068 11.9911 14.6042C12.4117 15.3682 13.1597 16.5061 14.0161 17.3624C14.8735 18.2187 16.0649 19.016 16.8824 19.484C16.9848 19.5416 17.1055 19.5577 17.2195 19.529C17.3334 19.5003 17.4321 19.4291 17.4952 19.3299L18.7037 17.4908C18.9259 17.1958 19.2537 16.9981 19.6184 16.9392C19.9831 16.8803 20.3564 16.9648 20.6602 17.175C21.9992 18.1016 23.5617 19.1339 24.7055 20.5982C24.8593 20.796 24.9572 21.0314 24.9888 21.28C25.0204 21.5285 24.9847 21.781 24.8854 22.011C24.0889 23.8691 22.0734 25.4513 19.977 25.3743Z" fill="#0A090E"/>
<defs>
<linearGradient id="paint0_linear_357_341" x1="31" y1="31.3769" x2="-0.619483" y2="30.7316" gradientUnits="userSpaceOnUse">
<stop stop-color="#F34900"/>
<stop offset="0.820824" stop-color="#FF9900"/>
</linearGradient>
</defs>
</svg>
