<svg width="31" height="32" viewBox="0 0 31 32" fill="none" xmlns="http://www.w3.org/2000/svg">
<rect y="0.376953" width="31" height="31" rx="6" fill="url(#paint0_linear_357_353)"/>
<path fill-rule="evenodd" clip-rule="evenodd" d="M12.8134 17.122L15.5019 18.928L18.0935 17.1715L23.9028 22.8023C23.7498 22.8508 23.5864 22.877 23.4163 22.877H7.58365C7.37465 22.877 7.17515 22.8368 6.9918 22.765L12.8134 17.122ZM25 12.4946V21.3211C25 21.5516 24.9487 21.77 24.8575 21.967L19.1632 16.4472L25 12.4946ZM6 12.544L11.7399 16.4006L6.1007 21.868C6.03391 21.6931 5.9998 21.5079 6 21.3211V12.544ZM23.4163 8.87695C24.2903 8.87695 25 9.57322 25 10.4328V10.9798L15.4981 17.4151L6 11.033V10.4328C6 9.57415 6.7087 8.87695 7.58365 8.87695H23.4163Z" fill="#0A090E"/>
<defs>
<linearGradient id="paint0_linear_357_353" x1="31" y1="31.3769" x2="-0.619483" y2="30.7316" gradientUnits="userSpaceOnUse">
<stop stop-color="#F34900"/>
<stop offset="0.820824" stop-color="#FF9900"/>
</linearGradient>
</defs>
</svg>
