<svg width="31" height="32" viewBox="0 0 31 32" fill="none" xmlns="http://www.w3.org/2000/svg">
<rect y="0.376953" width="31" height="31" rx="6" fill="url(#paint0_linear_357_362)"/>
<path d="M15.5 6.37695C20.7469 6.37695 25 10.6301 25 15.8769C25 21.1238 20.7469 25.3769 15.5 25.3769C13.8211 25.3797 12.1718 24.9354 10.7215 24.0897L6.00381 25.3769L7.28821 20.6573C6.44185 19.2066 5.99721 17.5565 6.00001 15.8769C6.00001 10.6301 10.2532 6.37695 15.5 6.37695ZM12.2624 11.412L12.0724 11.4195C11.9494 11.427 11.8292 11.4594 11.719 11.5145C11.616 11.5729 11.5219 11.6459 11.4397 11.7311C11.3257 11.8385 11.2611 11.9316 11.1918 12.0218C10.8404 12.4787 10.6512 13.0396 10.6541 13.6159C10.656 14.0814 10.7776 14.5346 10.9676 14.9583C11.3561 15.8152 11.9955 16.7224 12.8391 17.5632C13.0424 17.7655 13.2419 17.9688 13.4566 18.1579C14.5048 19.0808 15.7539 19.7463 17.1046 20.1016L17.6442 20.1842C17.8199 20.1937 17.9957 20.1804 18.1724 20.1719C18.449 20.1576 18.7192 20.0827 18.9637 19.9524C19.0881 19.8884 19.2095 19.8186 19.3276 19.7434C19.3276 19.7434 19.3684 19.7168 19.4463 19.6579C19.5746 19.5629 19.6534 19.4955 19.7598 19.3843C19.8387 19.3026 19.9071 19.2067 19.9593 19.0974C20.0334 18.9426 20.1075 18.6471 20.1379 18.4011C20.1607 18.213 20.1541 18.1104 20.1512 18.0467C20.1474 17.9451 20.0629 17.8396 19.9707 17.795L19.4178 17.547C19.4178 17.547 18.5913 17.187 18.0859 16.9571C18.033 16.934 17.9764 16.9208 17.9187 16.9181C17.8537 16.9115 17.788 16.9188 17.7261 16.9396C17.6642 16.9604 17.6074 16.9942 17.5596 17.0388C17.5549 17.0369 17.4912 17.091 16.8044 17.9232C16.7649 17.9762 16.7106 18.0163 16.6484 18.0382C16.5861 18.0602 16.5187 18.0632 16.4548 18.0467C16.3929 18.0302 16.3322 18.0092 16.2733 17.984C16.1555 17.9346 16.1147 17.9156 16.0339 17.8814C15.4887 17.6435 14.9839 17.322 14.5377 16.9286C14.418 16.8241 14.3068 16.7101 14.1928 16.5999C13.8191 16.242 13.4933 15.8371 13.2238 15.3953L13.1678 15.305C13.1275 15.2444 13.095 15.179 13.0709 15.1103C13.0348 14.9706 13.1288 14.8585 13.1288 14.8585C13.1288 14.8585 13.3597 14.6058 13.467 14.469C13.5715 14.336 13.6599 14.2068 13.7169 14.1147C13.829 13.9342 13.8641 13.7489 13.8052 13.6055C13.5392 12.9557 13.2637 12.3087 12.9806 11.6665C12.9246 11.5392 12.7583 11.448 12.6073 11.43C12.556 11.4243 12.5047 11.4186 12.4534 11.4148C12.3258 11.4085 12.1979 11.4097 12.0705 11.4186L12.2615 11.411L12.2624 11.412Z" fill="#0A090E"/>
<defs>
<linearGradient id="paint0_linear_357_362" x1="31" y1="31.3769" x2="-0.619483" y2="30.7316" gradientUnits="userSpaceOnUse">
<stop stop-color="#F34900"/>
<stop offset="0.820824" stop-color="#FF9900"/>
</linearGradient>
</defs>
</svg>
