<svg width="31" height="32" viewBox="0 0 31 32" fill="none" xmlns="http://www.w3.org/2000/svg">
<rect y="0.376953" width="31" height="31" rx="6" fill="url(#paint0_linear_357_336)"/>
<path d="M15.5 15.402C14.837 15.402 14.2011 15.1517 13.7322 14.7063C13.2634 14.2609 13 13.6568 13 13.027C13 12.3971 13.2634 11.793 13.7322 11.3476C14.2011 10.9022 14.837 10.652 15.5 10.652C16.163 10.652 16.7989 10.9022 17.2678 11.3476C17.7366 11.793 18 12.3971 18 13.027C18 13.3388 17.9353 13.6477 17.8097 13.9358C17.6841 14.224 17.4999 14.4858 17.2678 14.7063C17.0356 14.9269 16.76 15.1018 16.4567 15.2212C16.1534 15.3405 15.8283 15.402 15.5 15.402ZM15.5 6.37695C13.6435 6.37695 11.863 7.07758 10.5503 8.32469C9.2375 9.57181 8.5 11.2633 8.5 13.027C8.5 18.0145 15.5 25.377 15.5 25.377C15.5 25.377 22.5 18.0145 22.5 13.027C22.5 11.2633 21.7625 9.57181 20.4497 8.32469C19.137 7.07758 17.3565 6.37695 15.5 6.37695Z" fill="#0A090E"/>
<defs>
<linearGradient id="paint0_linear_357_336" x1="31" y1="31.3769" x2="-0.619483" y2="30.7316" gradientUnits="userSpaceOnUse">
<stop stop-color="#F34900"/>
<stop offset="0.820824" stop-color="#FF9900"/>
</linearGradient>
</defs>
</svg>
